<mxfile host="app.diagrams.net" modified="2024-04-25T11:34:46.734Z" agent="Mozilla/5.0 (Windows NT 10.0; Win64; x64) AppleWebKit/537.36 (KHTML, like Gecko) Chrome/123.0.0.0 Safari/537.36" etag="f2KrUUNqNx_UN6RvP7Of" version="24.3.0" type="device">
  <diagram name="Seite-1" id="HMhu8rGgfIFLecY99ZYU">
    <mxGraphModel dx="1050" dy="557" grid="1" gridSize="10" guides="1" tooltips="1" connect="1" arrows="1" fold="1" page="1" pageScale="1" pageWidth="827" pageHeight="1169" math="0" shadow="0">
      <root>
        <mxCell id="0" />
        <mxCell id="1" parent="0" />
        <mxCell id="MXVIPdvQ_5GfF59QSvaQ-4" value="" style="shape=umlLifeline;perimeter=lifelinePerimeter;whiteSpace=wrap;html=1;container=1;dropTarget=0;collapsible=0;recursiveResize=0;outlineConnect=0;portConstraint=eastwest;newEdgeStyle={&quot;curved&quot;:0,&quot;rounded&quot;:0};participant=umlActor;" parent="1" vertex="1">
          <mxGeometry x="200" y="50" width="20" height="540" as="geometry" />
        </mxCell>
        <mxCell id="MXVIPdvQ_5GfF59QSvaQ-5" value="Website" style="shape=umlLifeline;perimeter=lifelinePerimeter;whiteSpace=wrap;html=1;container=1;dropTarget=0;collapsible=0;recursiveResize=0;outlineConnect=0;portConstraint=eastwest;newEdgeStyle={&quot;curved&quot;:0,&quot;rounded&quot;:0};" parent="1" vertex="1">
          <mxGeometry x="310" y="50" width="100" height="510" as="geometry" />
        </mxCell>
        <mxCell id="Dg7wdzn4RcdX5_WSqAzZ-10" value="" style="shape=umlDestroy;whiteSpace=wrap;html=1;strokeWidth=3;targetShapes=umlLifeline;" parent="MXVIPdvQ_5GfF59QSvaQ-5" vertex="1">
          <mxGeometry x="35" y="490" width="30" height="30" as="geometry" />
        </mxCell>
        <mxCell id="MXVIPdvQ_5GfF59QSvaQ-7" value="" style="shape=umlLifeline;perimeter=lifelinePerimeter;whiteSpace=wrap;html=1;container=1;dropTarget=0;collapsible=0;recursiveResize=0;outlineConnect=0;portConstraint=eastwest;newEdgeStyle={&quot;curved&quot;:0,&quot;rounded&quot;:0};participant=umlBoundary;" parent="1" vertex="1">
          <mxGeometry x="500" y="50" width="50" height="520" as="geometry" />
        </mxCell>
        <mxCell id="MXVIPdvQ_5GfF59QSvaQ-8" value="Server" style="text;html=1;align=center;verticalAlign=middle;resizable=0;points=[];autosize=1;strokeColor=none;fillColor=none;" parent="1" vertex="1">
          <mxGeometry x="495" y="20" width="60" height="30" as="geometry" />
        </mxCell>
        <mxCell id="MXVIPdvQ_5GfF59QSvaQ-13" value="Code Scannen" style="html=1;verticalAlign=bottom;endArrow=block;curved=0;rounded=0;" parent="1" target="MXVIPdvQ_5GfF59QSvaQ-5" edge="1">
          <mxGeometry width="80" relative="1" as="geometry">
            <mxPoint x="210" y="120" as="sourcePoint" />
            <mxPoint x="290" y="120" as="targetPoint" />
          </mxGeometry>
        </mxCell>
        <mxCell id="MXVIPdvQ_5GfF59QSvaQ-14" value="Daten Prüfen" style="html=1;verticalAlign=bottom;endArrow=block;curved=0;rounded=0;" parent="1" edge="1">
          <mxGeometry width="80" relative="1" as="geometry">
            <mxPoint x="360" y="190" as="sourcePoint" />
            <mxPoint x="524.5" y="190" as="targetPoint" />
          </mxGeometry>
        </mxCell>
        <mxCell id="MXVIPdvQ_5GfF59QSvaQ-15" value="Login Screen" style="html=1;verticalAlign=bottom;endArrow=open;dashed=1;endSize=8;curved=0;rounded=0;" parent="1" source="MXVIPdvQ_5GfF59QSvaQ-5" edge="1">
          <mxGeometry relative="1" as="geometry">
            <mxPoint x="290" y="150" as="sourcePoint" />
            <mxPoint x="210" y="150" as="targetPoint" />
          </mxGeometry>
        </mxCell>
        <mxCell id="MXVIPdvQ_5GfF59QSvaQ-16" value="Daten eingeben" style="html=1;verticalAlign=bottom;endArrow=block;curved=0;rounded=0;" parent="1" edge="1">
          <mxGeometry width="80" relative="1" as="geometry">
            <mxPoint x="210" y="180" as="sourcePoint" />
            <mxPoint x="359.4999999999999" y="180" as="targetPoint" />
          </mxGeometry>
        </mxCell>
        <mxCell id="MXVIPdvQ_5GfF59QSvaQ-18" value="Spiel Anzeigen" style="html=1;verticalAlign=bottom;endArrow=open;dashed=1;endSize=8;curved=0;rounded=0;" parent="1" edge="1">
          <mxGeometry relative="1" as="geometry">
            <mxPoint x="359.5" y="310" as="sourcePoint" />
            <mxPoint x="210" y="310" as="targetPoint" />
          </mxGeometry>
        </mxCell>
        <mxCell id="CE3ml50OLoYUzE5mu6BU-1" value="" style="endArrow=open;endFill=1;endSize=12;html=1;rounded=0;" parent="1" edge="1">
          <mxGeometry width="160" relative="1" as="geometry">
            <mxPoint x="524.7307692307693" y="200" as="sourcePoint" />
            <mxPoint x="524.7307692307693" y="230" as="targetPoint" />
            <Array as="points">
              <mxPoint x="570" y="200" />
              <mxPoint x="570" y="230" />
            </Array>
          </mxGeometry>
        </mxCell>
        <mxCell id="CE3ml50OLoYUzE5mu6BU-2" value="Daten Prüfen" style="text;html=1;align=center;verticalAlign=middle;resizable=0;points=[];autosize=1;strokeColor=none;fillColor=none;" parent="1" vertex="1">
          <mxGeometry x="570" y="200" width="90" height="30" as="geometry" />
        </mxCell>
        <mxCell id="CE3ml50OLoYUzE5mu6BU-3" value="Weiterleitung" style="html=1;verticalAlign=bottom;endArrow=open;dashed=1;endSize=8;curved=0;rounded=0;" parent="1" edge="1">
          <mxGeometry relative="1" as="geometry">
            <mxPoint x="524.5" y="240" as="sourcePoint" />
            <mxPoint x="360" y="240" as="targetPoint" />
          </mxGeometry>
        </mxCell>
        <mxCell id="CE3ml50OLoYUzE5mu6BU-6" value="Abruf Produkt" style="html=1;verticalAlign=bottom;endArrow=block;curved=0;rounded=0;" parent="1" edge="1">
          <mxGeometry width="80" relative="1" as="geometry">
            <mxPoint x="360" y="270" as="sourcePoint" />
            <mxPoint x="524.5" y="270" as="targetPoint" />
          </mxGeometry>
        </mxCell>
        <mxCell id="CE3ml50OLoYUzE5mu6BU-7" value="Produkte daten geben" style="html=1;verticalAlign=bottom;endArrow=open;dashed=1;endSize=8;curved=0;rounded=0;" parent="1" source="MXVIPdvQ_5GfF59QSvaQ-7" edge="1">
          <mxGeometry relative="1" as="geometry">
            <mxPoint x="440" y="300" as="sourcePoint" />
            <mxPoint x="360" y="300" as="targetPoint" />
          </mxGeometry>
        </mxCell>
        <mxCell id="CE3ml50OLoYUzE5mu6BU-9" value="Produkt aussuchen" style="html=1;verticalAlign=bottom;endArrow=block;curved=0;rounded=0;" parent="1" edge="1">
          <mxGeometry width="80" relative="1" as="geometry">
            <mxPoint x="210" y="340" as="sourcePoint" />
            <mxPoint x="359.5" y="340" as="targetPoint" />
          </mxGeometry>
        </mxCell>
        <mxCell id="CE3ml50OLoYUzE5mu6BU-11" value="" style="endArrow=open;endFill=1;endSize=12;html=1;rounded=0;" parent="1" edge="1">
          <mxGeometry width="160" relative="1" as="geometry">
            <mxPoint x="359.7307692307693" y="350" as="sourcePoint" />
            <mxPoint x="359.7307692307693" y="380" as="targetPoint" />
            <Array as="points">
              <mxPoint x="405" y="350" />
              <mxPoint x="405" y="380" />
            </Array>
          </mxGeometry>
        </mxCell>
        <mxCell id="CE3ml50OLoYUzE5mu6BU-12" value="Zwischenspeichern (Json)" style="text;html=1;align=center;verticalAlign=middle;resizable=0;points=[];autosize=1;strokeColor=none;fillColor=none;" parent="1" vertex="1">
          <mxGeometry x="400" y="350" width="160" height="30" as="geometry" />
        </mxCell>
        <mxCell id="Dg7wdzn4RcdX5_WSqAzZ-1" value="Auswahl bestätigen" style="html=1;verticalAlign=bottom;endArrow=block;curved=0;rounded=0;" parent="1" edge="1">
          <mxGeometry width="80" relative="1" as="geometry">
            <mxPoint x="210" y="410" as="sourcePoint" />
            <mxPoint x="359.5" y="410" as="targetPoint" />
          </mxGeometry>
        </mxCell>
        <mxCell id="Dg7wdzn4RcdX5_WSqAzZ-2" value="Auswahl prüfen" style="html=1;verticalAlign=bottom;endArrow=block;curved=0;rounded=0;" parent="1" target="MXVIPdvQ_5GfF59QSvaQ-7" edge="1">
          <mxGeometry width="80" relative="1" as="geometry">
            <mxPoint x="360" y="420" as="sourcePoint" />
            <mxPoint x="509.5" y="420" as="targetPoint" />
          </mxGeometry>
        </mxCell>
        <mxCell id="Dg7wdzn4RcdX5_WSqAzZ-3" value="" style="endArrow=open;endFill=1;endSize=12;html=1;rounded=0;" parent="1" edge="1">
          <mxGeometry width="160" relative="1" as="geometry">
            <mxPoint x="524.7307692307693" y="430" as="sourcePoint" />
            <mxPoint x="524.7307692307693" y="460" as="targetPoint" />
            <Array as="points">
              <mxPoint x="570" y="430" />
              <mxPoint x="570" y="460" />
            </Array>
          </mxGeometry>
        </mxCell>
        <mxCell id="Dg7wdzn4RcdX5_WSqAzZ-4" value="Bepunktung berechnen" style="text;html=1;align=center;verticalAlign=middle;resizable=0;points=[];autosize=1;strokeColor=none;fillColor=none;" parent="1" vertex="1">
          <mxGeometry x="570" y="430" width="150" height="30" as="geometry" />
        </mxCell>
        <mxCell id="Dg7wdzn4RcdX5_WSqAzZ-5" value="Punktzahl zurückgeben" style="html=1;verticalAlign=bottom;endArrow=open;dashed=1;endSize=8;curved=0;rounded=0;" parent="1" edge="1">
          <mxGeometry relative="1" as="geometry">
            <mxPoint x="525" y="470" as="sourcePoint" />
            <mxPoint x="360" y="470" as="targetPoint" />
          </mxGeometry>
        </mxCell>
        <mxCell id="Dg7wdzn4RcdX5_WSqAzZ-6" value="Punkte anzeigen" style="html=1;verticalAlign=bottom;endArrow=open;dashed=1;endSize=8;curved=0;rounded=0;" parent="1" edge="1">
          <mxGeometry relative="1" as="geometry">
            <mxPoint x="360" y="480" as="sourcePoint" />
            <mxPoint x="210" y="480" as="targetPoint" />
          </mxGeometry>
        </mxCell>
        <mxCell id="Dg7wdzn4RcdX5_WSqAzZ-7" value="" style="endArrow=open;endFill=1;endSize=12;html=1;rounded=0;" parent="1" target="MXVIPdvQ_5GfF59QSvaQ-5" edge="1">
          <mxGeometry width="160" relative="1" as="geometry">
            <mxPoint x="210" y="510" as="sourcePoint" />
            <mxPoint x="359.5" y="505" as="targetPoint" />
          </mxGeometry>
        </mxCell>
        <mxCell id="Dg7wdzn4RcdX5_WSqAzZ-8" value="Seite schließen" style="text;html=1;align=center;verticalAlign=middle;resizable=0;points=[];autosize=1;strokeColor=none;fillColor=none;" parent="1" vertex="1">
          <mxGeometry x="230" y="480" width="110" height="30" as="geometry" />
        </mxCell>
      </root>
    </mxGraphModel>
  </diagram>
</mxfile>
